<svg xmlns="http://www.w3.org/2000/svg" viewBox="0 0 512 512">
  <rect width="512" height="512" rx="100" fill="#fdf6e9"/>
  <rect x="14" y="14" width="484" height="484" rx="88" fill="none" stroke="#4a8a3c" stroke-width="14" opacity="0.25"/>
  <g transform="translate(256 240)">
    <!-- four heart-shaped leaves -->
    <g fill="#4a8a3c">
      <g transform="rotate(0)">
        <circle cx="-38" cy="-96" r="46"/>
        <circle cx="38" cy="-96" r="46"/>
        <path d="M -76 -78 L 0 -6 L 76 -78 Q 40 -132 0 -110 Q -40 -132 -76 -78 Z"/>
      </g>
      <g transform="rotate(90)">
        <circle cx="-38" cy="-96" r="46"/>
        <circle cx="38" cy="-96" r="46"/>
        <path d="M -76 -78 L 0 -6 L 76 -78 Q 40 -132 0 -110 Q -40 -132 -76 -78 Z"/>
      </g>
      <g transform="rotate(180)">
        <circle cx="-38" cy="-96" r="46"/>
        <circle cx="38" cy="-96" r="46"/>
        <path d="M -76 -78 L 0 -6 L 76 -78 Q 40 -132 0 -110 Q -40 -132 -76 -78 Z"/>
      </g>
      <g transform="rotate(270)">
        <circle cx="-38" cy="-96" r="46"/>
        <circle cx="38" cy="-96" r="46"/>
        <path d="M -76 -78 L 0 -6 L 76 -78 Q 40 -132 0 -110 Q -40 -132 -76 -78 Z"/>
      </g>
    </g>
    <!-- leaf highlights -->
    <g fill="#5aa653">
      <circle cx="-38" cy="-96" r="30"/>
      <circle cx="96" cy="-38" r="30"/>
      <circle cx="38" cy="96" r="30"/>
      <circle cx="-96" cy="38" r="30"/>
    </g>
    <circle cx="0" cy="0" r="20" fill="#3f7f3a"/>
  </g>
  <!-- stem -->
  <path d="M 256 268 Q 246 350 210 396" fill="none" stroke="#3f7f3a" stroke-width="26" stroke-linecap="round"/>
</svg>
